<svg width="25" height="26" viewBox="0 0 25 26" className="fill-[#49535c]"><path d="M6.1 25c-.45-.14-.95-.22-1.37-.44a3.91 3.91 0 0 1-2.14-3.28c-.22-2-.48-4-.72-6.01l-.23-1.99h-.62c-.6 0-1.01-.4-1.02-1.01V8.44c0-.6.42-1.01 1.02-1.02h3.2a.4.4 0 0 0 .36-.18L9.54.5c.3-.42.69-.57 1.11-.45.61.17.9.85.6 1.4l-.18.27-4.03 5.48-.15.22h11.27l-.17-.24-4.04-5.5c-.22-.3-.34-.6-.23-.96a.97.97 0 0 1 1.62-.42c.09.09.16.19.23.28l4.88 6.65c.11.15.22.2.4.2h3.1c.3 0 .55.08.76.28a.8.8 0 0 1 .25.61v4.03a.9.9 0 0 1-.9.94h-.67l-.24 2.1c-.06.54-.11 1.08-.19 1.6a.96.96 0 0 1-1.01.83c-.54-.04-.95-.47-.9-1.02.06-.85.17-1.71.27-2.57.07-.64.15-1.27.21-1.91.07-.64.45-.98 1.09-.98h.42V9.4H1.97v1.93h16.48c.33 0 .64.05.87.3.27.3.34.65.2 1.03a.94.94 0 0 1-.84.62H3.61l.12 1.07c.27 2.26.55 4.5.81 6.76.06.46.18.9.49 1.25a2 2 0 0 0 1.6.7H18.5c.91-.01 1.61-.49 1.92-1.32.06-.17.08-.36.13-.54a.97.97 0 0 1 1.13-.73c.5.1.85.59.78 1.1a3.9 3.9 0 0 1-3.35 3.4c-.04 0-.07.02-.1.04H6.1Z"></path><path d="M7.62 18.16V16.3c0-.62.4-1.06.97-1.06s.98.43.98 1.05v3.76c0 .61-.41 1.05-.98 1.05-.56 0-.96-.44-.97-1.06v-1.88ZM11.53 18.16v-1.83c0-.65.4-1.09.97-1.1.57 0 .98.45.98 1.08v3.79a.97.97 0 0 1-1.86.41 1.36 1.36 0 0 1-.09-.47v-1.88ZM15.44 18.15V16.3c0-.62.4-1.06.97-1.06s.98.43.98 1.05v3.76c0 .62-.42 1.05-.99 1.05-.55 0-.96-.44-.96-1.04v-1.9Z"></path></svg>