<svg width="24" height="25" viewBox="0 0 24 25" class="fill-current text-dark"><path d="M13.63 24.8a12.5 12.5 0 0 0 10.07-9.6c.08-.38.13-.78.18-1.16l.08-.59.03-.15.01-.03v-1.55l-.06-.43-.13-.95A12.46 12.46 0 0 0 11.97.01a12.5 12.5 0 0 0-8.24 2.62A12.35 12.35 0 0 0 .12 7.06c-.14.3-.15.63-.02.91s.38.48.69.55c.49.12.93-.12 1.2-.67a10.54 10.54 0 0 1 19.63 7.31 10.49 10.49 0 0 1-9.37 7.77 10.55 10.55 0 0 1-10.31-5.9 1.06 1.06 0 0 0-.6-.53 1 1 0 0 0-.78.06c-.5.26-.7.85-.45 1.35a12.48 12.48 0 0 0 10.1 7.03l.45.06h1.56l.45-.06.96-.13Z"></path><path d="M13.21 17.99c.33.05.67-.08.92-.34l2.4-2.57.7-.76a2.54 2.54 0 0 0 0-3.64l-1-1.07-.45-.49a174.8 174.8 0 0 1-1.65-1.77c-.38-.4-.91-.46-1.33-.17-.27.18-.44.48-.48.81-.03.34.08.68.32.93.41.46.83.9 1.28 1.38l.6.64.41.44H7.11c-.54 0-.97.33-1.08.84-.08.35 0 .7.19.96.2.28.51.43.86.43h7.86l-.41.45-.6.63-1.28 1.37c-.36.4-.44.92-.2 1.38.17.3.45.5.76.55Z"></path></svg>