<?xml version="1.0" encoding="utf-8"?>
<!-- Generator: Adobe Illustrator 26.5.0, SVG Export Plug-In . SVG Version: 6.00 Build 0)  -->
<svg version="1.1" id="Слой_1" xmlns="http://www.w3.org/2000/svg" xmlns:xlink="http://www.w3.org/1999/xlink" x="0px" y="0px"
	 viewBox="0 0 512 512" style="enable-background:new 0 0 512 512;" xml:space="preserve">
<style type="text/css">
	.st0{fill:#FFFFFF;}
	.st1{fill:#DE3F3B;}
</style>
<g>
	<path class="st0" d="M180.58,410.25c2.14,1.3,5.43,1.28,8.21,0.3c2.83-1.02,5.19-2.99,4.43-6.26c-0.98-0.01-1.5-0.61-1.99-1.29
		c-2.79-3.75-1.54-11.51-2.86-15.54c-2.68-8.04-11.61-7.65-15.82-1.92c-0.57,0.74-0.98,1.72-1.29,2.66
		c-0.16,0.48-0.28,0.9-0.42,1.36c-0.08,0.27-0.11,0.45-0.21,0.81c-0.01,0.09-0.07,0.33-0.09,0.39l-0.09,0.39
		c-0.7-2.82-1.38-5.07-3.11-6.33c-3.56-2.63-8.29-1.76-10.73,0.94c-0.75,0.83-1.82,2.58-1.46,3.92l-0.07-0.06
		c0.11,0.39,1.25,1.39,1.73,2.13c3.37,5.43,1.56,16.13,4.63,18.74c2.51,2.11,8.72,0.43,11.38-2.07c1.46-1.38,1.41-1.95,1.11-4.13
		c-0.3-2.21-1.4-8.84-1.11-10.3C178.05,390.22,172.86,405.53,180.58,410.25z"/>
	<path class="st0" d="M252.96,399.39c2.3-0.49,5.41-2.9,5.05-6.61c-6.34-1.9-4.34-8.38-6.48-9.09l0,0.01
		c-3.42,2.66-2.96,0.11-3.23-4.41c-0.23-3.61-0.23-7.44-1.12-11.22c-1.84-5.09-7.94-3.45-10.95-1.57c-3.17,1.99-2.21,2.01-1.57,5.41
		c0.28,1.41,1.51,13.21,1.28,13.68c-2.69,1.9-2.63-1.69-2.62-3.31c-0.01-5.62-0.85-14.77-8.39-13.75c-3.26,0.44-6.55,2.31-7.36,3.37
		c6.16,6.03,2.69,18.25,5.52,22.54c1.59,2.41,4.05,3.72,7.48,3.02c4.87-1.99,5.65-4.72,6.92-7.26c2.95,3.62,6.1,4.31,10.29,1.81
		C247.32,394.22,246.68,400.71,252.96,399.39z"/>
	<path class="st0" d="M345.11,162.78c-0.79,2.44-2.52,7.16-4.37,8.79c0.03-1.85-0.18-3.67-0.35-5.72
		c-1.38-18.86-2-49.46-26.23-50.29c-14.4-0.49-30.5,7.81-36.7,25.35c20.56-4.18,24.32,19.49,25.4,32.5
		c0.62,7.13,4.57,43.71,6.03,50.5c1.89,8.6,11.53,6.46,18.68,4.67c6.95-1.73,18.53-7.86,17.47-16.89c-0.2-1.67-0.33-3.5-0.5-5.36
		l-2.64-23.02c14.76,10.66,22.12,34.02,46.59,27.89c17.45-4.37,23.87-13.32,20.09-30.53c-0.32-1.49-4.25,0.38-9.82-0.71
		c-3.38-0.67-20.62-7.73-24.58-11.15c3.99-2.04,10.24-12.73,11.65-18.53c0.41-1.64,0.73-2.93,0.95-4.69
		c0.39-3.34,0.26-7.22-0.6-11.18c-2.51-11.43-12.48-11.75-22.95-9.14c-5.45,1.34-10.66,3.53-13.89,6.36
		c-1.73,1.51-0.89,2.57-1.02,6.95C348.09,147.19,347.73,154.52,345.11,162.78z"/>
	<path class="st0" d="M277.44,140.96c0.01-0.02,0.02-0.03,0.02-0.05c-0.01,0-0.02,0-0.03,0L277.44,140.96z"/>
	<path class="st0" d="M248.89,207.37c-1.36-9.14,0.02-28.25-1.72-32.32c-8.05-18.85-33.47-4.01-37.84,1.86
		c5.28,21.16,2.12,48.26,10.75,61.17c4.82,7.22,12.24,11.09,22.57,8.93c16.65-5.3,19.03-23.48,19.46-28.37
		c5.98,9.58,31.91,0.33,37.59-11.15l0-0.01l0.01,0.01c-8.89-18.62-2.57-25.85-6.78-43.67c-4.09-17.34-23.99-10.24-33.05-4.45
		c-9.48,6.08-6.59,6.12-4.67,16.39c0.59,3.06,1.82,15.94,2.21,23.46c0.2,4.05,0.39,5.4-1.33,9.07
		C253.38,214.06,249.75,213.05,248.89,207.37z"/>
	<path class="st0" d="M251.51,383.68c0.01,0,0.01,0.01,0.01,0.01l0-0.02L251.51,383.68z"/>
	<path class="st0" d="M282.32,375.25c0,0,0.01,0.01,0.01,0.01l0,0L282.32,375.25z"/>
	<path class="st0" d="M473.1,284.14c-13.83-7.5-15.84-19.69-16.58-27.91c-2.37-26.35-9.76-51.14-30.7-51.44
		c-17.24-0.25-34.02,12.13-42.82,30.42l-4.31-4.52c-4.09-3.95-12.12-6.32-18.95-6.02c-12.23,0.54-25.73,8.58-30.88,16.96
		c-12.73,20.73,10.81,76.25-6.61,92.92l-2.34,2.14c-0.51,0.54-0.56,0.57-0.85,0.96c1.01,15.04,10.3,19.67,25.1,16.44
		c14.83-3.23,22.87-15.87,25.69-29.44c3.49-16.61-9.51-63.36-5.1-69.7c4.49-6.44,8.4,2.72,7.85,9.29
		c-0.63,7.71-0.77,15.78,0.62,22.77c2.56,12.84,10.44,20.72,25.74,14.59c18.17-7.3,13.98-30.88,8.52-44.69
		c-0.61-1.54-3.34-6.71-3.49-7.81c-0.58-4.02,1.44-6.54,4.83-5.21c1.86,0.73,3.92,3.97,4.9,6.29c2.48,5.93,2.53,11.41,3.35,16.8
		l0.01,0l-0.02,0.01C421.88,299.28,449.9,305.16,473.1,284.14z M329.68,321.6L329.68,321.6L329.68,321.6
		C329.68,321.59,329.68,321.59,329.68,321.6C329.68,321.6,329.68,321.6,329.68,321.6z"/>
	<path class="st0" d="M283.76,390.96c2.3-0.49,5.41-2.9,5.05-6.61c-6.36-1.89-4.33-8.38-6.48-9.09l-0.01,0.02
		c-3.42,2.66-2.96,0.12-3.23-4.41c-0.23-3.61-0.23-7.45-1.12-11.22c-1.84-5.09-7.94-3.45-10.95-1.57c-3.17,1.96-2.21,2-1.57,5.41
		c0.28,1.41,1.51,13.22,1.29,13.68c-2.69,1.9-2.63-1.69-2.62-3.31c0.02-5.6-0.85-14.77-8.39-13.75c-3.26,0.44-6.55,2.31-7.36,3.37
		c6.16,6.03,2.69,18.25,5.52,22.54c1.59,2.4,4.05,3.71,7.48,3.02c4.87-1.99,5.65-4.72,6.92-7.26c2.94,3.61,6.1,4.31,10.29,1.8
		C278.12,385.78,277.48,392.27,283.76,390.96z"/>
	<path class="st0" d="M156.85,260.45c-2.27-9.45-5.4-12.95-7.95-11.5c-34.95,19.71-73,19.64-91.05,28.49
		c-21.75,10.69-12.81,39.96-8.37,40.68l0-0.03l-0.01,0c5.34-1.88,23.26-9.17,35.55-9.43l5.53,60.55c0.56,5.55,0.39,12.64,4.59,16.32
		c6.23,5.45,14.15,2.78,21.76,0.87c6.61-1.65,18.09-8.55,18.72-12.42c0.08-0.5-8.32-71.92-9.25-75.62
		C158.58,290.6,159.95,273.31,156.85,260.45z"/>
	<path class="st0" d="M163.87,368.27c18.62,1.97,33.03-9.4,34.28-27.18l0.01,0.01l0-0.06c7.33,30.98,38.91,2.21,39.88,0
		c-7.13-4.19-8.82-21.95-9.82-30.12c-0.79-6.19-2.15-27.21-5.05-31.81c-1.55-2.47-4.29-3.94-7.21-4.36
		c-3.51-0.5-23.21,2.75-24.5,7.89l-0.54,4.52c-10.35-6.67-28.9-1.81-38.53,7.44C129.1,317.01,140.62,365.8,163.87,368.27z
		 M185.64,310.42c0.08,5.02,4.18,27.63-3.21,29.3c-4.32,0.98-6.61-4.65-7.52-10.78l0,0l0-0.03c0,0.01,0,0.02,0,0.03l0.01,0
		C174.14,323.39,176.79,312.2,185.64,310.42z"/>
	<path class="st0" d="M300.62,369.55L300.62,369.55l0.06-0.01c2.5,10.51,13.22,0.85,13.55,0.12c-2.45-1.45-3-7.44-3.36-10.22
		c-0.25-2.1-0.73-9.22-1.73-10.79c-0.54-0.82-1.48-1.33-2.45-1.48c-1.21-0.18-7.9,0.87-8.33,2.6l-0.2,1.53
		c-3.54-2.29-9.82-0.71-13.09,2.39c-7.93,7.51-4,24.03,3.91,24.95C295.32,379.36,300.2,375.55,300.62,369.55z M297.52,358.35
		c0.03,1.72,1.42,9.35-1.09,9.9c-1.46,0.32-2.26-1.59-2.55-3.69l0.01,0.02C293.61,362.7,294.5,358.94,297.52,358.35z"/>
	<path class="st0" d="M200.75,402.82c1.65-0.34,3.24-0.99,4.48-1.85c1.51-1.05,1.85-1.86,2.72-2.91c1.07,1.33,1.2,1.83,2.65,2.47
		c1.13,0.51,2.53,0.55,4.02,0.23c1.49-0.32,2.87-0.96,3.89-1.77c1.36-1.05,1.48-1.58,2.3-2.59l0.04,0.05l0.01-0.01
		c-0.57-1.19-0.99-1.72-1.34-3.22c-1.17-5.24-0.44-11.31-1.83-17.27c-1.33-5.77-7.94-3.45-10.95-1.57c-3.16,1.99-2.21,2-1.57,5.41
		c0.25,1.41,1.51,13.21,1.28,13.68c-2.69,1.9-2.91-4.19-2.9-5.84c0.01-2.52,0.01-5.63-1.05-8.14c-2.64-6.28-11.1-1.43-12.57,0.5
		c1.74,7.01,0.52,15.51,3.36,19.81C194.87,402.21,197.32,403.49,200.75,402.82z"/>
	<path class="st0" d="M324.92,320.6L324.92,320.6C324.92,320.61,324.92,320.6,324.92,320.6c0.01-0.01,0.02-0.02,0.02-0.03
		L324.92,320.6c-1.72-3.6-3.01-5.16-4.02-9.66c-3.62-15.78-1.47-34.15-5.71-52.1c-4.09-17.34-23.99-10.24-33.05-4.45
		c-9.48,6.08-6.59,6.12-4.67,16.39c0.81,4.25,4.71,39.91,4,41.28c-8.1,5.8-8.82-12.62-8.82-17.5c-0.04-7.53,0-16.97-3.22-24.53
		c-8.05-18.85-33.45-4.02-37.84,1.86c5.28,21.16,1.69,46.81,10.35,59.72c4.82,7.22,12.24,11.09,22.57,8.93
		c4.96-1.05,9.77-3.06,13.51-5.71c4.56-3.22,5.58-5.67,8.2-8.85c3.28,3.97,3.64,5.51,7.96,7.37c3.4,1.5,7.61,1.62,12.11,0.6
		c4.48-1.02,8.59-3.02,11.72-5.46C322.13,325.3,322.51,323.71,324.92,320.6z"/>
	<path class="st0" d="M222.83,122.14c-16.37-6.14-41.54,15.01-53.59,20c-14.75,6.14-35.96,12.05-50.53,5.52
		c-4.42-1.99-3.07-3.28-9.15,1.27c-19.7,14.69-10.42,47.95,19.65,45.81c12.4-0.88,18.79-3.6,29.69-7.3l6.14,60.55
		c0.82,10.08,0.57,22.64,13.15,24.33c5.11,0.69,10.23-0.3,16.22-2.35c13.38-4.56,18.5-16.98,16.73-20.23l-3.47-6.8
		c-2.25-5.75-8.74-68.65-9.15-69.96c2.01-2.58,17.67-12.7,27.96-13.64l0,0.01C233.11,152.03,233.51,126.14,222.83,122.14z"/>
	<path class="st0" d="M287.13,223.87c-12.25,0.57-31.11,17.45-25.82,26c1.29,2.1,3.62,3.69,5.72,4.5c3.22,1.21,3.2-0.24,5.94-2.37
		c5.95-4.62,17.69-9.19,23.06-8.89l0.01,0c2.87-3.68,3.56-8.85,2.17-12.21C296.25,226.18,290.94,223.7,287.13,223.87z"/>
</g>
<g>
	<polygon class="st1" points="329.67,321.6 329.68,321.6 329.68,321.6 329.68,321.59 	"/>
	<path class="st1" d="M174.91,328.95L174.91,328.95c0-0.01,0-0.02,0-0.03L174.91,328.95z"/>
	<path class="st1" d="M174.91,328.95c0.9,6.13,3.2,11.75,7.52,10.78c7.39-1.67,3.29-24.29,3.21-29.3
		C176.79,312.2,174.14,323.39,174.91,328.95L174.91,328.95z"/>
	<path class="st1" d="M293.89,364.59l-0.01-0.02c0.29,2.1,1.08,4.01,2.55,3.69c2.52-0.55,1.12-8.19,1.09-9.9
		C294.5,358.94,293.61,362.7,293.89,364.59z"/>
	<path class="st1" d="M510.85,222.36c-0.16-5.37-0.48-10.83-1.08-16.35c-0.6-5.54-1.44-11-2.58-16.29
		c-3.74-17.34-10.64-33.26-19.19-48.31c-8.47-14.92-18.53-28.96-28.82-42.64c-7.84-10.49-16.67-19.88-26.37-28.32
		c-9.69-8.43-20.19-15.88-31.41-22.45c-3.73-2.2-7.67-4.58-11.58-7c-4.66-2.85-9.36-5.73-14.55-8.7c-4.87-2.79-9.86-5.46-15.01-7.92
		c-5.15-2.46-10.42-4.69-15.77-6.58l-0.01-0.04l-0.11-0.01c-14.64-5.17-29.69-10.23-45.04-13.59c-15.52-3.4-31.37-5.12-47.45-3.6
		c-9.51,0.9-19.05,1.96-28.58,3.44c-9.58,1.49-19.07,3.41-28.38,6.03c-6.55,1.86-12.96,4.02-19.28,6.51
		c-6.37,2.5-12.53,5.22-18.54,8.15c-5.64,2.76-11.41,5.71-17.28,8.79c-5.78,3.08-11.44,6.17-17.01,9.27
		c-5.76,3.23-11.51,6.53-17.27,9.97c-5.85,3.47-11.5,7.01-16.98,10.58C70.7,75.05,56.24,90.43,44.55,107.83
		c-13.51,20.16-23.31,43.05-30.33,66.04c-1.6,5.24-2.82,10.62-3.81,16.02c-0.98,5.37-1.66,10.77-2.26,16.11
		c-0.61,5.71-1.13,11.8-1.63,17.92c-0.39,4.93-0.79,9.86-1.28,14.68c-0.33,3.53-0.87,8.21-1.37,12.91
		c-2.19,19.98-4.35,39.87-2.45,60.29c0.14,1.72,0.35,3.5,0.6,5.3c0.25,1.84,0.53,3.64,0.85,5.36c2.08,11.76,5.74,23.12,10.32,34.05
		c4.58,10.88,10.1,21.35,16.02,31.45c2.86,4.87,5.93,9.51,9.27,13.93c3.38,4.45,6.99,8.68,10.95,12.72
		c2.69,2.76,5.49,5.36,8.36,7.86c2.77,2.42,5.72,4.82,8.75,7.24c6.24,4.93,12.59,9.57,18.98,14.24l1.8,1.32
		c4.88,3.58,9.67,7.09,14.42,10.59l6.55,4.83c2.02,1.5,4.32,3.17,8.23,6.01l0,0.03c2.84,2.06,5.61,4.03,8.34,5.94
		c4.26,2.97,8.6,5.88,13.12,8.63c4.56,2.78,9.24,5.33,14.08,7.51c4.61,2.08,9.37,3.81,14.27,5.31c4.77,1.46,9.66,2.66,14.59,3.7
		c3.35,0.72,6.5,1.32,9.5,1.87c2.81,0.52,6.07,1.06,9.52,1.62c4.12,0.65,8.14,1.28,12.08,1.85c4.89,0.75,8.66,1.3,12.07,1.76
		c3.23,0.46,6.28,0.98,9.21,1.55c2.62,0.49,5.91,1.15,9.26,1.87l0.46,0.09c5.36,1.11,10.75,2.24,16.41,2.92
		c2.32,0.28,4.58,0.46,6.73,0.56c2.24,0.12,4.5,0.11,6.77-0.02c4.75-0.26,9.58-0.82,14.44-1.6c4.75-0.76,9.46-1.74,14.1-2.82
		c8.7-1.99,17.04-4.36,25.43-6.71l6.79-1.92c5.48-1.53,10.86-3.13,16.04-4.89c5.29-1.8,10.56-3.84,15.73-6.27
		c3.34-1.53,6.61-3.21,9.83-5.01c3.3-1.84,6.43-3.68,9.42-5.53c6.72-4.14,13.33-8.68,19.77-13.55c6.47-4.91,12.68-10.1,18.59-15.56
		c10.14-9.33,18.95-19.55,26.93-30.36c7.96-10.78,15.07-22.16,21.84-33.92c1.39-2.42,2.37-4.08,3.35-5.72
		c4.68-7.92,9.35-15.84,12.82-24.41c1.6-3.92,3-7.17,4.39-10.44c4.19-9.84,8.4-19.68,11.18-30.15c1.15-4.37,2.1-8.83,2.85-13.33
		c0.74-4.5,1.27-8.96,1.69-13.45c0.6-6.64,0.93-13.31,1.26-19.95c0.23-4.76,0.48-9.52,0.8-14.23c0.35-4.92,0.58-9.86,0.72-14.85
		C511,232.27,510.99,227.3,510.85,222.36z M277.46,140.91c6.2-17.54,22.3-25.84,36.7-25.35c24.24,0.83,24.85,31.43,26.23,50.29
		c0.17,2.06,0.38,3.87,0.35,5.72c1.85-1.63,3.58-6.35,4.37-8.79c2.62-8.27,2.98-15.59,3.23-24.19c0.13-4.38-0.71-5.45,1.02-6.95
		c3.23-2.83,8.44-5.02,13.89-6.36c10.46-2.61,20.44-2.29,22.95,9.14c0.86,3.96,0.99,7.84,0.6,11.18c-0.22,1.76-0.54,3.05-0.95,4.69
		c-1.41,5.8-7.66,16.49-11.65,18.53c3.95,3.42,21.2,10.48,24.58,11.15c5.58,1.09,9.5-0.78,9.82,0.71
		c3.79,17.21-2.64,26.16-20.09,30.53c-24.48,6.13-31.84-17.22-46.59-27.89l2.64,23.02c0.16,1.85,0.3,3.68,0.5,5.36
		c1.06,9.03-10.52,15.16-17.47,16.89c-7.14,1.78-16.78,3.93-18.68-4.67c-1.47-6.79-5.41-43.36-6.03-50.5
		C301.78,160.4,298.02,136.73,277.46,140.91c-0.01,0.02-0.02,0.03-0.02,0.05l-0.01-0.05C277.44,140.91,277.45,140.91,277.46,140.91z
		 M247.18,175.05c1.74,4.07,0.35,23.18,1.72,32.32c0.85,5.69,4.49,6.69,7.19,0.93c1.72-3.67,1.53-5.03,1.33-9.07
		c-0.39-7.51-1.62-20.39-2.21-23.46c-1.92-10.27-4.81-10.31,4.67-16.39c9.06-5.79,28.96-12.89,33.05,4.45
		c4.22,17.81-2.1,25.05,6.78,43.67l-0.01-0.01l0,0.01c-5.68,11.48-31.61,20.73-37.59,11.15c-0.43,4.88-2.81,23.07-19.46,28.37
		c-10.33,2.15-17.76-1.71-22.57-8.93c-8.63-12.91-5.47-40.01-10.75-61.17C213.7,171.03,239.13,156.2,247.18,175.05z M296.05,243.12
		L296.05,243.12c-5.38-0.31-17.12,4.27-23.07,8.89c-2.74,2.13-2.72,3.57-5.94,2.37c-2.1-0.81-4.42-2.4-5.72-4.5
		c-5.29-8.55,13.57-25.43,25.82-26c3.81-0.17,9.12,2.31,11.09,7.03C299.61,234.27,298.92,239.44,296.05,243.12z M109.56,148.92
		c6.07-4.55,4.72-3.26,9.15-1.27c14.57,6.53,35.78,0.62,50.53-5.52c12.05-4.99,37.22-26.14,53.59-20c10.68,4,10.28,29.89,3.65,37.2
		l0-0.01c-10.29,0.94-25.94,11.06-27.96,13.64c0.41,1.31,6.9,64.21,9.15,69.96l3.47,6.8c1.77,3.25-3.35,15.67-16.73,20.23
		c-5.99,2.05-11.11,3.04-16.22,2.35c-12.58-1.69-12.33-14.26-13.15-24.33l-6.14-60.55c-10.9,3.71-17.28,6.42-29.69,7.3
		C99.15,196.87,89.86,163.61,109.56,148.92z M135.61,373.99c-0.63,3.86-12.1,10.77-18.72,12.42c-7.62,1.9-15.54,4.57-21.76-0.87
		c-4.19-3.68-4.03-10.77-4.59-16.32l-5.53-60.55c-12.29,0.26-30.21,7.55-35.55,9.43l0.01,0l0,0.03
		c-4.43-0.72-13.38-29.99,8.37-40.68c18.04-8.86,56.09-8.79,91.05-28.49c2.55-1.44,5.68,2.05,7.95,11.5
		c3.1,12.85,1.73,30.15-30.49,37.92C127.3,302.08,135.69,373.49,135.61,373.99z M152.4,294.59c9.63-9.25,28.18-14.11,38.53-7.44
		l0.54-4.52c1.29-5.14,20.99-8.39,24.5-7.89c2.91,0.41,5.66,1.88,7.21,4.36c2.91,4.6,4.27,25.62,5.05,31.81
		c0.99,8.18,2.69,25.93,9.82,30.12c-0.97,2.21-32.55,30.98-39.88,0l0,0.06l-0.01-0.01c-1.25,17.77-15.66,29.14-34.28,27.18
		C140.62,365.8,129.1,317.01,152.4,294.59z M188.79,410.54c-2.78,0.99-6.07,1-8.21-0.3c-7.72-4.72-2.53-20.03-7.76-16.26
		c-0.29,1.45,0.81,8.09,1.11,10.3c0.3,2.18,0.35,2.75-1.11,4.13c-2.66,2.5-8.87,4.18-11.38,2.07c-3.07-2.61-1.26-13.31-4.63-18.74
		c-0.48-0.74-1.63-1.74-1.73-2.13l0.07,0.06c-0.36-1.34,0.71-3.1,1.46-3.92c2.43-2.7,7.16-3.57,10.73-0.94
		c1.73,1.27,2.41,3.51,3.11,6.33l0.09-0.39c0.02-0.06,0.08-0.3,0.09-0.39c0.09-0.36,0.13-0.53,0.21-0.81
		c0.14-0.45,0.25-0.88,0.42-1.36c0.31-0.94,0.72-1.92,1.29-2.66c4.21-5.73,13.14-6.12,15.82,1.92c1.32,4.03,0.07,11.79,2.86,15.54
		c0.5,0.68,1.01,1.28,1.99,1.29C193.98,407.56,191.62,409.52,188.79,410.54z M220.84,396.46l-0.04-0.05
		c-0.82,1.01-0.94,1.54-2.3,2.59c-1.02,0.8-2.4,1.45-3.89,1.77c-1.49,0.31-2.88,0.28-4.02-0.23c-1.44-0.64-1.58-1.14-2.65-2.47
		c-0.87,1.05-1.21,1.86-2.72,2.91c-1.24,0.86-2.83,1.51-4.48,1.85c-3.43,0.67-5.88-0.61-7.48-3.02c-2.84-4.29-1.62-12.8-3.36-19.81
		c1.47-1.93,9.93-6.78,12.57-0.5c1.06,2.51,1.06,5.62,1.05,8.14c-0.01,1.64,0.21,7.74,2.9,5.84c0.23-0.47-1.03-12.27-1.28-13.68
		c-0.64-3.41-1.59-3.42,1.57-5.41c3.01-1.88,9.62-4.2,10.95,1.57c1.39,5.96,0.66,12.03,1.83,17.27
		C219.85,394.73,220.27,395.26,220.84,396.46L220.84,396.46z M252.96,399.39c-6.28,1.32-5.64-5.18-5.19-7.38
		c-4.19,2.5-7.34,1.81-10.29-1.81c-1.27,2.54-2.05,5.27-6.92,7.26c-3.43,0.7-5.89-0.61-7.48-3.02c-2.83-4.29,0.64-16.51-5.52-22.54
		c0.81-1.06,4.1-2.92,7.36-3.37c7.54-1.03,8.38,8.13,8.39,13.75c-0.01,1.62-0.07,5.21,2.62,3.31c0.23-0.47-1-12.27-1.28-13.68
		c-0.64-3.41-1.59-3.42,1.57-5.41c3.01-1.88,9.1-3.52,10.95,1.57c0.89,3.78,0.89,7.61,1.12,11.22c0.27,4.52-0.2,7.07,3.23,4.41
		l0-0.01c-0.01,0-0.01-0.01-0.01-0.01l0.02-0.01l0,0.02c2.15,0.72,0.14,7.19,6.48,9.09C258.37,396.49,255.26,398.9,252.96,399.39z
		 M283.76,390.96c-6.28,1.32-5.64-5.18-5.19-7.38c-4.19,2.51-7.34,1.81-10.29-1.8c-1.27,2.54-2.05,5.27-6.92,7.26
		c-3.42,0.7-5.89-0.61-7.48-3.02c-2.83-4.29,0.64-16.51-5.52-22.54c0.81-1.06,4.1-2.92,7.36-3.37c7.54-1.03,8.41,8.15,8.39,13.75
		c-0.01,1.61-0.08,5.2,2.62,3.31c0.22-0.46-1-12.27-1.29-13.68c-0.64-3.41-1.6-3.44,1.57-5.41c3.01-1.89,9.1-3.52,10.95,1.57
		c0.89,3.78,0.89,7.61,1.12,11.22c0.27,4.52-0.19,7.07,3.23,4.41l0.01-0.02c0,0-0.01-0.01-0.01-0.01l0.01,0l0,0
		c2.15,0.71,0.12,7.2,6.48,9.09C289.17,388.05,286.06,390.47,283.76,390.96z M300.68,369.54l-0.05,0.01l-0.01-0.01
		c-0.42,6-5.3,9.81-11.63,9.09c-7.91-0.92-11.84-17.44-3.91-24.95c3.28-3.1,9.55-4.68,13.09-2.39l0.2-1.53
		c0.43-1.73,7.12-2.79,8.33-2.6c0.97,0.15,1.91,0.66,2.45,1.48c1,1.56,1.48,8.69,1.73,10.79c0.35,2.79,0.91,8.77,3.36,10.22
		C313.9,370.4,303.18,380.06,300.68,369.54z M306.3,333.96c-4.51,1.02-8.71,0.9-12.11-0.6c-4.32-1.87-4.68-3.4-7.96-7.37
		c-2.62,3.18-3.65,5.63-8.2,8.85c-3.74,2.65-8.55,4.66-13.51,5.71c-10.33,2.15-17.76-1.71-22.57-8.93
		c-8.66-12.91-5.07-38.56-10.35-59.72c4.39-5.88,29.79-20.71,37.84-1.86c3.22,7.56,3.18,17,3.22,24.53c0,4.88,0.72,23.31,8.82,17.5
		c0.71-1.37-3.19-37.03-4-41.28c-1.92-10.27-4.81-10.31,4.67-16.39c9.06-5.79,28.96-12.89,33.05,4.45
		c4.24,17.95,2.08,36.31,5.71,52.1c1.02,4.5,2.3,6.07,4.02,9.65l0.02-0.02c-0.01,0.01-0.01,0.02-0.02,0.03c0,0,0,0.01,0.01,0.01
		l-0.01-0.01c-2.41,3.11-2.79,4.7-6.89,7.9C314.89,330.94,310.78,332.95,306.3,333.96z M417.06,266.97l0.02-0.01l-0.01,0
		c-0.82-5.4-0.88-10.88-3.35-16.8c-0.98-2.32-3.04-5.56-4.9-6.29c-3.39-1.33-5.4,1.2-4.83,5.21c0.15,1.11,2.88,6.28,3.49,7.81
		c5.46,13.8,9.65,37.39-8.52,44.69c-15.3,6.12-23.18-1.75-25.74-14.59c-1.39-7-1.24-15.07-0.62-22.77
		c0.55-6.57-3.36-15.73-7.85-9.29c-4.42,6.34,8.58,53.09,5.1,69.7c-2.83,13.57-10.87,26.21-25.69,29.44
		c-14.8,3.23-24.09-1.4-25.1-16.44c0.3-0.39,0.35-0.42,0.85-0.96l2.34-2.14c17.42-16.66-6.13-72.19,6.61-92.92
		c5.15-8.38,18.66-16.42,30.88-16.96c6.83-0.29,14.85,2.08,18.95,6.02l4.31,4.52c8.79-18.28,25.58-30.67,42.82-30.42
		c20.93,0.3,28.32,25.09,30.7,51.44c0.74,8.21,2.75,20.4,16.58,27.91C449.9,305.16,421.88,299.28,417.06,266.97z"/>
</g>
</svg>
