<?xml version="1.0" encoding="UTF-8"?>
<svg xmlns="http://www.w3.org/2000/svg" xmlns:xlink="http://www.w3.org/1999/xlink" viewBox="0 0 80 80" version="1.1">
<g id="surface1" >
<path style=" stroke:none;fill-rule:nonzero;fill:rgb(89.019608%,89.019608%,89.019608%);fill-opacity:1;" d="M 73.882812 70.121094 L 1.347656 70.121094 C 0.851562 70.121094 0.449219 69.71875 0.449219 69.222656 L 0.449219 58.132812 C 0.449219 57.632812 0.851562 57.230469 1.347656 57.230469 L 73.882812 57.230469 C 74.382812 57.230469 74.785156 57.632812 74.785156 58.132812 L 74.785156 69.222656 C 74.785156 69.71875 74.382812 70.121094 73.882812 70.121094 Z M 2.25 68.320312 L 72.984375 68.320312 L 72.984375 59.03125 L 2.25 59.03125 Z M 2.25 68.320312 "/>
<path style=" stroke:none;fill-rule:nonzero;fill:rgb(89.019608%,89.019608%,89.019608%);fill-opacity:1;" d="M 43.292969 64.726562 L 31.941406 64.726562 C 29.324219 64.726562 26.945312 63.285156 25.730469 60.972656 L 24.457031 58.550781 C 24.308594 58.269531 24.320312 57.933594 24.480469 57.667969 C 24.644531 57.398438 24.9375 57.234375 25.25 57.234375 L 49.984375 57.234375 C 50.296875 57.234375 50.589844 57.398438 50.75 57.667969 C 50.914062 57.9375 50.925781 58.269531 50.777344 58.550781 L 49.503906 60.972656 C 48.289062 63.289062 45.910156 64.726562 43.292969 64.726562 Z M 26.738281 59.03125 L 27.320312 60.136719 C 28.222656 61.855469 29.996094 62.925781 31.941406 62.925781 L 43.292969 62.925781 C 45.238281 62.925781 47.007812 61.859375 47.914062 60.136719 L 48.492188 59.03125 Z M 26.738281 59.03125 "/>
<path style=" stroke:none;fill-rule:nonzero;fill:rgb(89.019608%,89.019608%,89.019608%);fill-opacity:1;" d="M 80.480469 59.03125 L 7.945312 59.03125 C 7.449219 59.03125 7.042969 58.628906 7.042969 58.132812 L 7.042969 47.042969 C 7.042969 46.542969 7.449219 46.144531 7.945312 46.144531 L 80.480469 46.144531 C 80.976562 46.144531 81.378906 46.542969 81.378906 47.042969 L 81.378906 58.132812 C 81.378906 58.628906 80.976562 59.03125 80.480469 59.03125 Z M 8.84375 57.230469 L 79.578125 57.230469 L 79.578125 47.941406 L 8.84375 47.941406 Z M 8.84375 57.230469 "/>
<path style=" stroke:none;fill-rule:nonzero;fill:rgb(89.019608%,89.019608%,89.019608%);fill-opacity:1;" d="M 49.886719 53.636719 L 38.535156 53.636719 C 35.921875 53.636719 33.539062 52.199219 32.324219 49.882812 L 31.050781 47.460938 C 30.902344 47.179688 30.914062 46.847656 31.074219 46.578125 C 31.238281 46.308594 31.53125 46.144531 31.84375 46.144531 L 56.578125 46.144531 C 56.890625 46.144531 57.183594 46.308594 57.34375 46.578125 C 57.507812 46.847656 57.519531 47.183594 57.371094 47.460938 L 56.097656 49.882812 C 54.882812 52.199219 52.503906 53.636719 49.886719 53.636719 Z M 33.332031 47.941406 L 33.914062 49.046875 C 34.820312 50.769531 36.589844 51.835938 38.535156 51.835938 L 49.886719 51.835938 C 51.832031 51.835938 53.601562 50.769531 54.507812 49.046875 L 55.089844 47.941406 Z M 33.332031 47.941406 "/>
<path style=" stroke:none;fill-rule:nonzero;fill:rgb(89.019608%,89.019608%,89.019608%);fill-opacity:1;" d="M 73.882812 47.941406 L 1.347656 47.941406 C 0.851562 47.941406 0.449219 47.539062 0.449219 47.042969 L 0.449219 35.953125 C 0.449219 35.457031 0.851562 35.054688 1.347656 35.054688 L 73.882812 35.054688 C 74.382812 35.054688 74.785156 35.457031 74.785156 35.953125 L 74.785156 47.042969 C 74.785156 47.539062 74.382812 47.941406 73.882812 47.941406 Z M 2.25 46.144531 L 72.984375 46.144531 L 72.984375 36.851562 L 2.25 36.851562 Z M 2.25 46.144531 "/>
<path style=" stroke:none;fill-rule:nonzero;fill:rgb(89.019608%,89.019608%,89.019608%);fill-opacity:1;" d="M 43.292969 42.546875 L 31.941406 42.546875 C 29.324219 42.546875 26.945312 41.109375 25.730469 38.792969 L 24.457031 36.371094 C 24.308594 36.09375 24.320312 35.757812 24.480469 35.488281 C 24.644531 35.21875 24.9375 35.054688 25.25 35.054688 L 49.984375 35.054688 C 50.296875 35.054688 50.589844 35.21875 50.75 35.488281 C 50.914062 35.757812 50.925781 36.09375 50.777344 36.371094 L 49.503906 38.792969 C 48.289062 41.109375 45.910156 42.546875 43.292969 42.546875 Z M 26.738281 36.851562 L 27.320312 37.957031 C 28.222656 39.679688 29.996094 40.75 31.941406 40.75 L 43.292969 40.75 C 45.238281 40.75 47.007812 39.679688 47.914062 37.957031 L 48.492188 36.851562 Z M 26.738281 36.851562 "/>
<path style=" stroke:none;fill-rule:nonzero;fill:rgb(89.019608%,89.019608%,89.019608%);fill-opacity:1;" d="M 37.210938 30.347656 C 36.980469 30.347656 36.753906 30.257812 36.578125 30.085938 C 36.222656 29.738281 36.222656 29.167969 36.570312 28.816406 C 39.042969 26.308594 39.011719 23.46875 36.476562 19.875 C 34.570312 17.164062 34.570312 14.914062 36.464844 12.105469 C 36.742188 11.691406 37.300781 11.585938 37.710938 11.863281 C 38.125 12.140625 38.234375 12.699219 37.953125 13.109375 C 36.460938 15.328125 36.457031 16.71875 37.945312 18.839844 C 40.988281 23.148438 40.957031 26.929688 37.851562 30.078125 C 37.671875 30.257812 37.441406 30.347656 37.210938 30.347656 Z M 37.210938 30.347656 "/>
<path style=" stroke:none;fill-rule:nonzero;fill:rgb(89.019608%,89.019608%,89.019608%);fill-opacity:1;" d="M 30.714844 30.347656 C 30.484375 30.347656 30.257812 30.257812 30.082031 30.085938 C 29.730469 29.738281 29.726562 29.167969 30.074219 28.816406 C 32.546875 26.308594 32.519531 23.46875 29.980469 19.875 C 28.078125 17.164062 28.074219 14.914062 29.96875 12.105469 C 30.246094 11.691406 30.804688 11.585938 31.21875 11.863281 C 31.628906 12.140625 31.738281 12.699219 31.460938 13.109375 C 29.964844 15.328125 29.960938 16.71875 31.449219 18.839844 C 34.492188 23.148438 34.460938 26.929688 31.355469 30.078125 C 31.179688 30.257812 30.945312 30.347656 30.714844 30.347656 Z M 30.714844 30.347656 "/>
<path style=" stroke:none;fill-rule:nonzero;fill:rgb(89.019608%,89.019608%,89.019608%);fill-opacity:1;" d="M 43.707031 30.347656 C 43.476562 30.347656 43.25 30.257812 43.074219 30.085938 C 42.71875 29.738281 42.71875 29.167969 43.066406 28.816406 C 45.539062 26.308594 45.507812 23.46875 42.972656 19.875 C 41.070312 17.164062 41.066406 14.914062 42.960938 12.105469 C 43.238281 11.691406 43.796875 11.585938 44.207031 11.863281 C 44.621094 12.140625 44.730469 12.699219 44.453125 13.109375 C 42.957031 15.328125 42.953125 16.71875 44.441406 18.839844 C 47.484375 23.148438 47.453125 26.929688 44.347656 30.078125 C 44.167969 30.257812 43.9375 30.347656 43.707031 30.347656 Z M 43.707031 30.347656 "/>
</g>
</svg>
