<svg xmlns="http://www.w3.org/2000/svg" fill="none" viewBox="0 0 51 50"><path fill="#CED4DA" d="M25.08 50a6.04 6.04 0 0 1-3.36-1.88c-.74-.74-1.54-1.42-2.3-2.15a1.93 1.93 0 0 0-1.75-.52c-1.3.2-2.59.37-3.88.53-2.87.34-4.94-1.18-5.4-3.94-.21-1.2-.44-2.38-.64-3.56a1.8 1.8 0 0 0-1.07-1.39c-1.18-.57-2.35-1.17-3.5-1.78-2.43-1.25-3.24-3.64-2.05-6.02.56-1.14 1.14-2.28 1.74-3.41.32-.6.32-1.17 0-1.77-.6-1.12-1.16-2.24-1.73-3.37-1.21-2.42-.39-4.82 2.08-6.09 1.14-.58 2.27-1.18 3.42-1.73a1.89 1.89 0 0 0 1.13-1.5c.2-1.26.42-2.51.68-3.75.56-2.64 2.73-4.06 5.5-3.64 1.3.2 2.59.36 3.88.54.6.09 1.1-.08 1.53-.49l2.92-2.72a4.68 4.68 0 0 1 6.6 0c.97.88 1.93 1.75 2.86 2.65.52.5 1.1.65 1.8.54 1.3-.2 2.59-.4 3.88-.53 2.83-.31 4.84 1.14 5.35 3.83.23 1.19.45 2.37.64 3.56.11.7.45 1.19 1.12 1.51 1.14.55 2.25 1.14 3.38 1.71 2.55 1.3 3.35 3.7 2.09 6.2-.55 1.06-1.07 2.14-1.64 3.19a1.87 1.87 0 0 0-.01 1.94c.6 1.1 1.15 2.21 1.7 3.33 1.19 2.39.38 4.77-2.04 6.02-1.15.6-2.3 1.2-3.46 1.76-.7.33-1.03.83-1.14 1.55-.2 1.24-.42 2.47-.68 3.7-.56 2.64-2.72 4.06-5.5 3.65-1.28-.2-2.58-.36-3.87-.54-.6-.09-1.1.07-1.53.48-.79.74-1.6 1.45-2.38 2.21A6.05 6.05 0 0 1 26.1 50h-1.02Zm12.99-6.84c.9.02 1.52-.43 1.68-1.21.22-1.12.47-2.24.6-3.37a5.03 5.03 0 0 1 3.22-4.28c1.03-.45 2.01-1 3.01-1.52 1.01-.52 1.26-1.26.77-2.24-.58-1.14-1.15-2.28-1.75-3.41a4.3 4.3 0 0 1 0-4.26c.59-1.1 1.14-2.22 1.7-3.33.56-1.1.32-1.79-.8-2.37-1.18-.59-2.35-1.18-3.51-1.78a4.36 4.36 0 0 1-2.46-3.16c-.26-1.36-.5-2.73-.77-4.08-.18-.96-.88-1.43-1.87-1.3-1.29.18-2.58.35-3.87.55a4.92 4.92 0 0 1-4.41-1.35c-.9-.87-1.83-1.7-2.74-2.55-.9-.83-1.66-.83-2.57.01l-2.85 2.65a4.6 4.6 0 0 1-3.85 1.27l-4.23-.57c-1.06-.14-1.76.3-1.96 1.3-.2 1.08-.45 2.15-.58 3.23A5.04 5.04 0 0 1 7.6 15.7c-1.02.44-1.99.99-2.98 1.5-1.04.53-1.29 1.25-.77 2.26.57 1.14 1.15 2.29 1.74 3.42a4.3 4.3 0 0 1 0 4.21l-1.72 3.37c-.54 1.08-.3 1.78.8 2.34l3.45 1.76a4.53 4.53 0 0 1 2.6 3.5c.2 1.24.44 2.48.68 3.7.21 1.08.9 1.51 2.01 1.35 1.3-.19 2.59-.35 3.88-.54 1.68-.23 3.1.24 4.3 1.39l2.7 2.51c.91.84 1.68.85 2.57.02.9-.83 1.8-1.63 2.67-2.48a5.02 5.02 0 0 1 4.64-1.4c1.31.22 2.65.37 3.9.53Z"/><path fill="#CED4DA" d="M37.09 15.5c-.14.3-.26.6-.41.87-.08.14-.23.25-.35.36L16.97 35.3c-.37.36-.75.66-1.3.65a1.44 1.44 0 0 1-1.33-.78 1.32 1.32 0 0 1 .13-1.51c.1-.15.24-.27.38-.4L34.2 14.7c.36-.36.75-.66 1.3-.65a1.6 1.6 0 0 1 1.58 1.46ZM19.55 22.58a5.38 5.38 0 0 1-5.48-5.33 5.43 5.43 0 0 1 5.55-5.23 5.42 5.42 0 0 1 5.46 5.32 5.4 5.4 0 0 1-5.53 5.25Zm.04-7.66a2.45 2.45 0 0 0-2.52 2.36c-.03 1.3 1.14 2.43 2.5 2.43s2.5-1.1 2.5-2.4c0-1.31-1.1-2.38-2.48-2.39ZM31.62 27.41a5.38 5.38 0 0 1 5.49 5.28c0 2.92-2.51 5.31-5.54 5.29a5.43 5.43 0 0 1-5.47-5.32 5.4 5.4 0 0 1 5.52-5.25Zm-.03 7.66c1.38.01 2.49-1.02 2.52-2.35.03-1.3-1.13-2.44-2.5-2.43a2.47 2.47 0 0 0-2.5 2.4c0 1.3 1.1 2.38 2.48 2.38Z"/></svg>
